<svg width="50" height="50" viewBox="0 0 50 50" fill="none" xmlns="http://www.w3.org/2000/svg">
<path d="M43.2617 18.75H35.0586C33.3328 18.75 31.9336 17.3508 31.9336 15.625C31.9336 13.8992 33.3328 12.5 35.0586 12.5H43.2617C44.9875 12.5 46.3867 13.8992 46.3867 15.625C46.3867 17.3508 44.9875 18.75 43.2617 18.75Z" fill="#FFB954"/>
<path d="M37.5 15.625C37.5 13.8992 38.8992 12.5 40.625 12.5H35.0586C33.3328 12.5 31.9336 13.8992 31.9336 15.625C31.9336 17.3508 33.3328 18.75 35.0586 18.75H40.625C38.8992 18.75 37.5 17.3508 37.5 15.625Z" fill="white"/>
<path d="M46.3867 15.625C46.3867 13.8992 44.9875 12.5 43.2617 12.5H40.625C38.8992 12.5 37.5 13.8992 37.5 15.625C37.5 17.3508 38.8992 18.75 40.625 18.75H43.2617C44.9875 18.75 46.3867 17.3508 46.3867 15.625Z" fill="#FFB954"/>
<path d="M40.0986 48.7598C40.6815 48.4222 41.0751 47.7928 41.0751 47.0703V18.75H39.122V47.0703C39.122 47.7928 39.5153 48.4222 40.0986 48.7598V48.7598Z" fill="#4DBAF6"/>
<path d="M40.0986 1.27831C39.5153 1.61629 39.122 2.24533 39.122 2.96783V12.5H41.0751V2.96783C41.0751 2.24533 40.6818 1.61629 40.0986 1.27831Z" fill="#4DBAF6"/>
<path d="M19.2383 28.2017V5.66406C19.2383 3.98369 18.3533 2.51045 17.0246 1.68304C15.696 2.51045 14.8113 3.98369 14.8113 5.66406V28.2017C11.116 29.9572 8.56134 33.7231 8.56134 38.0859C8.56134 43.2758 12.1758 47.6212 17.025 48.7423C21.8739 47.6212 25.4883 43.2758 25.4883 38.0859C25.4883 33.7231 22.9336 29.9572 19.2383 28.2017V28.2017Z" fill="#72D8FF"/>
<path d="M13.4441 38.0859C13.4441 35.696 14.8754 33.6418 16.9273 32.7301C16.2006 32.4074 15.3969 32.2266 14.5508 32.2266C11.3148 32.2266 8.69141 34.8499 8.69141 38.0859C8.69141 41.3219 11.3148 43.9453 14.5508 43.9453C15.3969 43.9453 16.2006 43.7645 16.927 43.4418C14.8754 42.5301 13.4441 40.4758 13.4441 38.0859Z" fill="white"/>
<path d="M20.4102 38.0859C20.4102 35.696 18.9789 33.6418 16.927 32.7301C14.8754 33.6418 13.4438 35.696 13.4438 38.0859C13.4438 40.4758 14.8754 42.5301 16.927 43.4418C18.9789 42.5301 20.4102 40.4758 20.4102 38.0859Z" fill="#FF5D5D"/>
<path d="M14.5508 31.25C10.7815 31.25 7.71484 34.3166 7.71484 38.0859C7.71484 41.8552 10.7815 44.9219 14.5508 44.9219C18.3201 44.9219 21.3867 41.8552 21.3867 38.0859C21.3867 34.3166 18.3201 31.25 14.5508 31.25ZM14.5508 42.9688C11.8584 42.9688 9.66797 40.7784 9.66797 38.0859C9.66797 35.3935 11.8584 33.2031 14.5508 33.2031C17.2432 33.2031 19.4336 35.3935 19.4336 38.0859C19.4336 40.7784 17.2432 42.9688 14.5508 42.9688Z" fill="black"/>
<path d="M20.2148 27.6024V5.66406C20.2148 2.54097 17.6739 0 14.5508 0C11.4277 0 8.88672 2.54097 8.88672 5.66406V27.6024C7.12242 28.5568 5.62515 29.9416 4.53186 31.6368C3.29208 33.5587 2.63672 35.7891 2.63672 38.0859C2.63672 44.6552 7.98149 50 14.5508 50C21.1201 50 26.4648 44.6552 26.4648 38.0859C26.4648 35.7891 25.8095 33.5587 24.5697 31.6368C23.4764 29.9416 21.9791 28.5568 20.2148 27.6024ZM14.5508 48.0469C9.05838 48.0469 4.58984 43.5783 4.58984 38.0859C4.58984 34.2602 6.82449 30.7266 10.2821 29.0836C10.6228 28.9219 10.8398 28.5786 10.8398 28.2017V5.66406C10.8398 3.61786 12.5046 1.95312 14.5508 1.95312C16.597 1.95312 18.2617 3.61786 18.2617 5.66406V28.2017C18.2617 28.5786 18.4788 28.9219 18.8194 29.0836C22.2771 30.7266 24.5117 34.2602 24.5117 38.0859C24.5117 43.5783 20.0432 48.0469 14.5508 48.0469Z" fill="black"/>
<path d="M14.5508 6.15234C14.8075 6.15234 15.0597 6.04782 15.2412 5.86624C15.4228 5.68466 15.5273 5.43251 15.5273 5.17578C15.5273 4.91905 15.4228 4.6669 15.2412 4.48532C15.0597 4.30374 14.8075 4.19922 14.5508 4.19922C14.2941 4.19922 14.0419 4.30374 13.8603 4.48532C13.6787 4.6669 13.5742 4.91905 13.5742 5.17578C13.5742 5.43251 13.6787 5.68466 13.8603 5.86624C14.0419 6.04782 14.2941 6.15234 14.5508 6.15234Z" fill="black"/>
<path d="M14.5508 28.6873C15.0902 28.6873 15.5273 28.2497 15.5273 27.7107V9.40742C15.5273 8.86803 15.0902 8.43086 14.5508 8.43086C14.0114 8.43086 13.5742 8.86803 13.5742 9.40742V27.7107C13.5742 28.2497 14.0114 28.6873 14.5508 28.6873Z" fill="black"/>
<path d="M23.0145 5.85938H24.7723C25.3113 5.85938 25.7488 5.42221 25.7488 4.88281C25.7488 4.34341 25.3113 3.90625 24.7723 3.90625H23.0145C22.4751 3.90625 22.0379 4.34341 22.0379 4.88281C22.0379 5.42221 22.4751 5.85938 23.0145 5.85938Z" fill="black"/>
<path d="M23.0145 12.1048H24.7723C25.3113 12.1048 25.7488 11.6676 25.7488 11.1282C25.7488 10.5888 25.3113 10.1517 24.7723 10.1517H23.0145C22.4751 10.1517 22.0379 10.5888 22.0379 11.1282C22.0379 11.6676 22.4751 12.1048 23.0145 12.1048Z" fill="black"/>
<path d="M23.0145 18.3502H24.7723C25.3113 18.3502 25.7488 17.9131 25.7488 17.3737C25.7488 16.8343 25.3113 16.3971 24.7723 16.3971H23.0145C22.4751 16.3971 22.0379 16.8343 22.0379 17.3737C22.0379 17.9131 22.4751 18.3502 23.0145 18.3502Z" fill="black"/>
<path d="M23.0145 24.5956H24.7723C25.3113 24.5956 25.7488 24.1585 25.7488 23.6191C25.7488 23.0801 25.3113 22.6425 24.7723 22.6425H23.0145C22.4751 22.6425 22.0379 23.0801 22.0379 23.6191C22.0379 24.1585 22.4751 24.5956 23.0145 24.5956Z" fill="black"/>
<path d="M4.32928 5.85938H6.0871C6.6265 5.85938 7.06366 5.42221 7.06366 4.88281C7.06366 4.34341 6.6265 3.90625 6.0871 3.90625H4.32928C3.79027 3.90625 3.35272 4.34341 3.35272 4.88281C3.35272 5.42221 3.79027 5.85938 4.32928 5.85938Z" fill="black"/>
<path d="M4.32928 12.1048H6.0871C6.6265 12.1048 7.06366 11.6676 7.06366 11.1282C7.06366 10.5888 6.6265 10.1517 6.0871 10.1517H4.32928C3.79027 10.1517 3.35272 10.5888 3.35272 11.1282C3.35272 11.6676 3.79027 12.1048 4.32928 12.1048Z" fill="black"/>
<path d="M4.32928 18.3502H6.0871C6.6265 18.3502 7.06366 17.9131 7.06366 17.3737C7.06366 16.8343 6.6265 16.3971 6.0871 16.3971H4.32928C3.79027 16.3971 3.35272 16.8343 3.35272 17.3737C3.35272 17.9131 3.79027 18.3502 4.32928 18.3502Z" fill="black"/>
<path d="M4.32928 24.5956H6.0871C6.6265 24.5956 7.06366 24.1585 7.06366 23.6191C7.06366 23.0801 6.6265 22.6425 6.0871 22.6425H4.32928C3.79027 22.6425 3.35272 23.0801 3.35272 23.6191C3.35272 24.1585 3.79027 24.5956 4.32928 24.5956Z" fill="black"/>
<path d="M41.0751 29.6875C40.8184 29.6875 40.5663 29.792 40.3847 29.9736C40.2023 30.1552 40.0986 30.4073 40.0986 30.6641C40.0986 30.9208 40.2023 31.1729 40.3847 31.3545C40.5663 31.5361 40.8184 31.6406 41.0751 31.6406C41.3319 31.6406 41.584 31.5361 41.7656 31.3545C41.9472 31.1729 42.0517 30.9208 42.0517 30.6641C42.0517 30.4073 41.9472 30.1552 41.7656 29.9736C41.5836 29.792 41.3319 29.6875 41.0751 29.6875Z" fill="black"/>
<path d="M43.2617 11.5234H42.0517V2.96783C42.0517 1.35269 40.7372 0.038147 39.122 0.038147C37.5065 0.038147 36.1923 1.35269 36.1923 2.96783V11.5234H35.0586C32.7969 11.5234 30.957 13.3633 30.957 15.625C30.957 17.8867 32.7969 19.7266 35.0586 19.7266H36.1923V47.0703C36.1923 48.6858 37.5065 50 39.122 50C40.7372 50 42.0517 48.6858 42.0517 47.0703V34.8633C42.0517 34.3239 41.6142 33.8867 41.0751 33.8867C40.5357 33.8867 40.0986 34.3239 40.0986 34.8633V47.0703C40.0986 47.6089 39.6603 48.0469 39.122 48.0469C38.5834 48.0469 38.1454 47.6089 38.1454 47.0703V19.7266H40.0986V26.8555C40.0986 27.3949 40.5357 27.832 41.0751 27.832C41.6142 27.832 42.0517 27.3949 42.0517 26.8555V19.7266H43.2617C45.5235 19.7266 47.3633 17.8867 47.3633 15.625C47.3633 13.3633 45.5235 11.5234 43.2617 11.5234ZM38.1454 2.96783C38.1454 2.42958 38.5834 1.99127 39.122 1.99127C39.6603 1.99127 40.0986 2.42958 40.0986 2.96783V11.5234H38.1454V2.96783ZM43.2617 17.7734H35.0586C33.8737 17.7734 32.9102 16.8098 32.9102 15.625C32.9102 14.4402 33.8737 13.4766 35.0586 13.4766H43.2617C44.4466 13.4766 45.4102 14.4402 45.4102 15.625C45.4102 16.8098 44.4466 17.7734 43.2617 17.7734Z" fill="black"/>
</svg>
