<svg width="50" height="50" viewBox="0 0 50 50" fill="none" xmlns="http://www.w3.org/2000/svg">
<path d="M44.0479 18.1967C44.048 18.1764 44.0494 18.1566 44.0494 18.1363C44.0494 13.3541 40.1727 9.47753 35.3906 9.47753C35.0344 9.47753 34.684 9.50156 34.3389 9.54335C32.9633 5.46484 29.1096 2.52695 24.567 2.52695C18.8711 2.52695 14.2537 7.14433 14.2537 12.8402C14.2537 13.0074 14.2584 13.1736 14.2664 13.3389C13.4896 13.1514 12.6793 13.0494 11.8447 13.0494C6.16602 13.0494 1.5625 17.6529 1.5625 23.3316C1.5625 29.0103 6.16602 33.6141 11.8449 33.6141H40.2645C44.7783 33.6141 48.4375 29.9549 48.4375 25.441C48.4375 22.2926 46.6564 19.5619 44.0479 18.1967V18.1967Z" fill="#E0EBFC"/>
<path d="M40.2645 34.0047H11.8449C5.95977 34.0047 1.17188 29.2168 1.17188 23.3316C1.17188 17.4465 5.95977 12.6586 11.8449 12.6586C12.5191 12.6586 13.1959 12.7234 13.8633 12.8518C13.8633 12.8479 13.8633 12.844 13.8633 12.84C13.8633 6.9379 18.665 2.13614 24.5672 2.13614C29.0594 2.13614 33.0537 4.93087 34.6047 9.12266C34.8729 9.09883 35.1361 9.08672 35.3908 9.08672C40.323 9.08672 44.3465 13.0531 44.4387 17.9637C47.1523 19.4799 48.8281 22.3232 48.8281 25.441C48.8281 30.1631 44.9865 34.0047 40.2645 34.0047ZM11.8449 13.44C6.39043 13.44 1.95312 17.8773 1.95312 23.3316C1.95312 28.7859 6.39043 33.2234 11.8449 33.2234H40.2645C44.5557 33.2234 48.0469 29.7322 48.0469 25.441C48.0469 22.5356 46.4451 19.8924 43.8668 18.5432C43.7367 18.475 43.6559 18.34 43.6572 18.1934L43.6582 18.1551C43.6586 13.5773 39.9496 9.86837 35.3904 9.86837C35.0643 9.86837 34.7355 9.88887 34.3855 9.93126C34.2023 9.95274 34.0277 9.84395 33.9686 9.66837C32.6066 5.63047 28.8283 2.91778 24.5668 2.91778C19.0955 2.91778 14.6441 7.36895 14.6441 12.8404C14.6441 13.0016 14.6486 13.1615 14.6563 13.3205C14.6621 13.4434 14.6098 13.5617 14.5148 13.6402C14.4201 13.7184 14.2937 13.7473 14.1744 13.7188C13.4086 13.5338 12.6248 13.44 11.8449 13.44V13.44Z" fill="#3762CC"/>
<path d="M22.2664 18.8139H21.2264C21.0092 17.899 20.626 17.2664 20.2734 16.6869C19.7937 15.8988 19.3795 15.2182 19.3795 13.7826C19.3795 12.3471 19.7937 11.6666 20.2734 10.8785C20.8031 10.0084 21.4035 9.02206 21.4035 7.13242C21.4035 6.68535 21.041 6.32285 20.5939 6.32285C20.1469 6.32285 19.7844 6.68535 19.7844 7.13242C19.7844 8.56796 19.3701 9.24863 18.8904 10.0367C18.3607 10.9068 17.7603 11.8932 17.7603 13.7826C17.7603 15.6723 18.3607 16.6586 18.8904 17.5287C19.1435 17.9443 19.3775 18.3312 19.543 18.8137H18.9213C18.6238 18.8137 18.4279 19.0941 18.5559 19.3369L20.2283 22.5107C20.3748 22.7889 20.8127 22.7889 20.9592 22.5107L22.6316 19.3369C22.7598 19.0941 22.5639 18.8139 22.2664 18.8139V18.8139Z" fill="#A4C9FF"/>
<path d="M31.8344 18.8139H30.7943C30.5771 17.899 30.1939 17.2664 29.8414 16.6869C29.3617 15.8988 28.9475 15.2182 28.9475 13.7826C28.9475 12.3471 29.3617 11.6666 29.8414 10.8785C30.3711 10.0084 30.9715 9.02206 30.9715 7.13242C30.9715 6.68535 30.609 6.32285 30.1619 6.32285C29.7148 6.32285 29.3523 6.68535 29.3523 7.13242C29.3523 8.56796 28.9381 9.24863 28.4584 10.0367C27.9287 10.9068 27.3283 11.8932 27.3283 13.7826C27.3283 15.6723 27.9287 16.6586 28.4584 17.5287C28.7115 17.9443 28.9455 18.3312 29.1109 18.8137H28.4892C28.1918 18.8137 27.9959 19.0941 28.1238 19.3369L29.7965 22.5107C29.943 22.7889 30.3809 22.7889 30.5273 22.5107L32.1998 19.3369C32.3277 19.0941 32.132 18.8139 31.8344 18.8139V18.8139Z" fill="#A4C9FF"/>
<path d="M25 47.473C31.5754 47.473 36.9059 42.1426 36.9059 35.5672C36.9059 28.9918 31.5754 23.6613 25 23.6613C18.4246 23.6613 13.0941 28.9918 13.0941 35.5672C13.0941 42.1426 18.4246 47.473 25 47.473Z" fill="#4671C6"/>
<path d="M25 44.1566C29.9453 44.1566 33.9543 40.1477 33.9543 35.2023C33.9543 30.257 29.9453 26.248 25 26.248C20.0547 26.248 16.0457 30.257 16.0457 35.2023C16.0457 40.1477 20.0547 44.1566 25 44.1566Z" fill="#F9CFCF"/>
<path d="M20.9711 35.1898C20.974 34.2402 21.3084 33.368 21.8627 32.6799L19.0414 28.526C17.2076 30.1643 16.0496 32.5439 16.0459 35.1898H20.9711Z" fill="#6BDDDD"/>
<path d="M33.9539 35.1898C33.9502 32.5439 32.7922 30.1645 30.9584 28.526L28.1371 32.6799C28.6916 33.368 29.0258 34.2402 29.0287 35.1898H33.9539Z" fill="#F9A7A7"/>
<path d="M25 47.8637C18.2197 47.8637 12.7035 42.3475 12.7035 35.5672C12.7035 28.7869 18.2197 23.2707 25 23.2707C31.7803 23.2707 37.2965 28.7869 37.2965 35.5672C37.2965 42.3475 31.7803 47.8637 25 47.8637ZM25 24.052C18.6504 24.052 13.4848 29.2176 13.4848 35.5672C13.4848 41.9168 18.6504 47.0824 25 47.0824C31.3496 47.0824 36.5152 41.9168 36.5152 35.5672C36.5152 29.2176 31.3496 24.052 25 24.052Z" fill="#3762CC"/>
<path d="M25 31.173C26.2672 31.173 27.3981 31.7623 28.1373 32.6799L30.9586 28.526C29.3744 27.1107 27.2865 26.2482 25.0002 26.2482C22.7139 26.2482 20.6258 27.1107 19.0418 28.526L21.8631 32.6799C22.602 31.7623 23.7328 31.173 25 31.173V31.173Z" fill="#FFEA92"/>
<path d="M25 44.5473C19.8473 44.5473 15.6551 40.3551 15.6551 35.2023C15.6551 30.0496 19.8473 25.8574 25 25.8574C30.1528 25.8574 34.3449 30.0496 34.3449 35.2023C34.3449 40.3551 30.1528 44.5473 25 44.5473ZM25 26.6389C20.2779 26.6389 16.4363 30.4805 16.4363 35.2025C16.4363 39.9246 20.2779 43.7662 25 43.7662C29.7221 43.7662 33.5637 39.9246 33.5637 35.2025C33.5637 30.4805 29.7221 26.6389 25 26.6389Z" fill="#3762CC"/>
<path d="M33.9539 35.5805H29.0289C28.8137 35.5805 28.6389 35.4062 28.6383 35.191C28.6357 34.3592 28.3572 33.5756 27.833 32.9248C27.1361 32.0596 26.1035 31.5635 25 31.5635C23.8965 31.5635 22.8639 32.0596 22.167 32.9248C21.6428 33.5754 21.3644 34.3592 21.3617 35.191C21.3611 35.4064 21.1863 35.5805 20.9711 35.5805H16.0461C15.9424 35.5805 15.843 35.5393 15.7697 35.4658C15.6965 35.3924 15.6553 35.293 15.6555 35.1893C15.6592 32.541 16.7986 30.0063 18.7812 28.2348C20.4971 26.7018 22.7057 25.8576 25 25.8576C27.2943 25.8576 29.5029 26.7018 31.2187 28.2348C33.2015 30.0063 34.3408 32.5412 34.3445 35.1893C34.3447 35.293 34.3037 35.3924 34.2303 35.4658C34.157 35.5393 34.0576 35.5805 33.9539 35.5805ZM29.4008 34.7992H33.5537C33.4449 32.5158 32.4176 30.3535 30.698 28.8172C29.1256 27.4125 27.1019 26.6389 24.9998 26.6389C22.8976 26.6389 20.874 27.4125 19.3016 28.8172C17.582 30.3535 16.5547 32.5158 16.4459 34.7992H20.5988C20.6789 33.9396 21.0127 33.1119 21.5582 32.4348C22.4043 31.3848 23.6586 30.7824 24.9998 30.7824C26.341 30.7824 27.5953 31.3848 28.4414 32.4348C28.9871 33.1119 29.3209 33.9396 29.4008 34.7992V34.7992Z" fill="#3762CC"/>
<path d="M23.6017 35.4166C23.4722 36.1076 23.823 36.8265 24.4783 37.0808C24.6482 37.1469 24.8318 37.182 25.0213 37.1793C25.6529 37.1705 26.1892 36.7674 26.3953 36.2051C26.4826 35.9668 26.4879 35.7058 26.4398 35.4566L25.2125 29.0875C25.1672 28.8539 24.833 28.8539 24.7875 29.0875L23.6017 35.4166Z" fill="#4671C6"/>
</svg>
