<svg width="30" height="30" viewBox="0 0 30 30" fill="none" xmlns="http://www.w3.org/2000/svg">
<g clip-path="url(#clip0)">
<path d="M0 0H30V30H0V0Z" fill="#F2B200"/>
<path d="M15 20.0157C17.7701 20.0157 20.0156 17.7701 20.0156 15C20.0156 12.23 17.7701 9.98441 15 9.98441C12.23 9.98441 9.98438 12.23 9.98438 15C9.98438 17.7701 12.23 20.0157 15 20.0157Z" fill="#FFDF99"/>
<path d="M1.64062 1.96878C2.71875 4.07816 4.26562 5.90628 5.95312 7.50003C7.5 9.00003 9.32813 10.5 11.3438 11.3438C10.4531 9.18753 8.8125 7.21878 7.17188 5.57816C5.48438 3.93753 3.5625 2.25003 1.35938 1.35941C1.45313 1.54691 1.54687 1.78128 1.64062 1.96878" fill="#FFDF99"/>
<path d="M19.7813 9.32812C19.3594 9.98437 18.9844 10.6406 18.6563 11.3437C20.8125 10.4531 22.7813 8.76562 24.4219 7.17187C26.0625 5.53125 27.7031 3.60937 28.5938 1.40625C26.9063 2.10937 25.3594 3.32813 23.9531 4.5C22.4063 5.90625 20.9531 7.5 19.7813 9.32812" fill="#FFDF99"/>
<path d="M14.0156 0.187516C13.8281 1.92189 13.8281 3.65627 14.0156 5.34377C14.1562 6.84377 14.3906 8.39064 15 9.79689C15.9375 7.59377 16.125 4.96877 16.125 2.57814C16.125 1.92189 16.0781 1.31252 16.0312 0.656266C16.0312 0.609391 15.9844 1.58716e-05 15.9375 1.58716e-05H14.625C14.3437 1.58716e-05 14.0625 -0.0937341 14.0156 0.187516" fill="#FFDF99"/>
<path d="M8.76563 1.5C9.23438 3.14063 9.84375 4.78125 10.6406 6.32812C11.2969 7.6875 12.0938 9.04688 13.1719 10.125C13.2656 7.73438 12.4687 5.20312 11.625 3C11.3906 2.34375 11.1094 1.73437 10.7813 1.07812C10.5938 0.796875 10.4063 0 10.0312 0H8.39062C8.53125 0.515625 8.625 1.03125 8.76563 1.5" fill="#FFDF99"/>
<path d="M20.1562 1.03125C19.3125 2.53125 18.6094 4.125 18.0469 5.76563C17.5781 7.17188 17.1562 8.71875 17.1562 10.2188C18.4687 9 19.4531 7.35938 20.25 5.8125C21.2344 3.98438 21.9844 2.01563 22.4531 0H20.7656C20.625 0 20.2031 0.890625 20.1562 1.03125Z" fill="#FFDF99"/>
<path d="M29.8125 14.0156C28.0781 13.8281 26.3437 13.8281 24.6562 14.0156C23.1562 14.1563 21.5625 14.3906 20.2031 15C22.4062 15.9375 25.0312 16.125 27.4219 16.125C28.0781 16.125 28.6875 16.0781 29.3437 16.0313C29.4375 16.0313 30 15.9844 30 15.9375V14.625C30 14.3438 30.0937 14.0625 29.8125 14.0156Z" fill="#FFDF99"/>
<path d="M28.5 8.76563C26.8594 9.23438 25.2187 9.84375 23.6719 10.6406C22.3125 11.2969 20.9531 12.0938 19.875 13.1719C22.2656 13.2656 24.7969 12.4687 27 11.625C27.6562 11.3906 28.2656 11.1094 28.9219 10.7812C29.2031 10.6406 30 10.4062 30 10.0781V8.4375C29.4844 8.53125 28.9687 8.625 28.5 8.76563" fill="#FFDF99"/>
<path d="M0.187501 15.9844C1.92188 16.1719 3.65625 16.1719 5.34375 15.9844C6.84375 15.8437 8.39063 15.6094 9.79688 15C7.59375 14.0625 4.96875 13.875 2.57813 13.875C1.92188 13.875 1.3125 13.9219 0.656251 13.9687C0.609376 13.9687 6.1281e-07 14.0156 6.1281e-07 14.0625V15.4219C6.1281e-07 15.6563 -0.0937494 15.9375 0.187501 15.9844" fill="#FFDF99"/>
<path d="M1.03125 9.84375C2.53125 10.6875 4.125 11.3906 5.76563 11.9531C7.17188 12.4219 8.71875 12.8437 10.2188 12.8437C9 11.5312 7.35938 10.5469 5.8125 9.75C3.98438 8.8125 2.01563 8.01562 0 7.54688V9.23438C0 9.375 0.890625 9.79687 1.03125 9.84375Z" fill="#FFDF99"/>
<path d="M0 13.9688V19.2656L7.82813 17.2031L0 13.9688Z" fill="#3E4347"/>
<path d="M30 14.9062L22.1719 10.4531L15 16.4063L7.82813 12.7969L0 18.0469V20.0156H30V14.9062Z" fill="#D0D0D0"/>
<path d="M22.1719 10.4531L24.7969 13.5469L20.0156 15.2344L26.0625 17.2031L20.0156 18.9844L7.82813 12.7969L5.85938 16.4063L9.98437 17.2031L7.82813 20.0156H30V14.9062L22.1719 10.4531Z" fill="#3E4347"/>
<path d="M30 18.6562C29.1562 18.7969 28.3125 19.0781 27.6094 19.4531C27.1875 18.8906 26.4844 18.5156 25.7344 18.5156C25.0781 18.5156 24.4687 18.7969 24.0469 19.2187C23.8594 19.0781 23.6719 18.9844 23.4375 18.9844C23.0625 18.9844 22.7344 19.2187 22.5937 19.5C22.2656 19.3594 21.8906 19.2656 21.5156 19.2656C20.9531 19.2656 20.4844 19.4531 20.0625 19.7344C19.4062 18.9844 18.4687 18.5156 17.4375 18.5156C16.4062 18.5156 15.4687 18.9844 14.8594 19.6875C14.5781 19.2656 14.1562 18.9844 13.5937 18.9844C12.9375 18.9844 12.375 19.4063 12.1875 20.0156C11.7187 19.5469 11.1094 19.2187 10.4062 19.2187C9.89062 19.2187 9.42187 19.3594 9.04687 19.6406C8.99999 18.2813 7.92187 17.2031 6.51562 17.2031C5.24999 17.2031 4.21874 18.0938 4.03124 19.3125C3.42187 18.7969 2.67187 18.5156 1.82812 18.5156C1.17187 18.5156 0.609367 18.7031 0.0937424 18.9844V30H30.0937L30 18.6562Z" fill="#83BF4F"/>
<path d="M29.7656 22.125C28.6406 21.5625 27.2344 21.5625 26.1563 22.2656C25.875 21.1406 24.8438 20.2031 23.625 20.2031C22.4531 20.2031 20.7656 21.0469 20.7656 22.4063C19.875 22.0313 18.75 22.0781 18 22.6875C17.5313 21.9375 16.5469 21.7031 15.75 21.9844C15.4219 22.125 15.3281 22.4531 14.9531 22.1719C14.5781 21.8906 14.1563 21.6563 13.6875 21.5625C12.7969 21.3281 11.8594 21.375 11.0625 21.75C10.875 21.8438 10.6875 21.9375 10.5 22.0781C10.3125 22.2188 10.125 22.4531 9.93751 22.5469C9.84376 22.5938 9.60938 22.4531 9.51563 22.4063C9.28126 22.3125 9.00001 22.2656 8.71876 22.2188C8.29688 22.1719 7.96876 22.3125 7.59376 22.4063C7.45313 22.4531 7.35938 22.2656 7.26563 22.2188C7.12501 22.125 6.89063 22.0313 6.70313 22.0313C6.42188 22.0313 6.18751 22.2188 5.90626 22.1719C5.81251 22.1719 5.57813 21.9844 5.48438 21.9375L4.78126 21.6563C3.93751 21.4688 3.00001 21.75 2.39063 22.4063C2.15626 22.6406 1.68751 22.3125 1.40626 22.2188C0.890633 22.0781 0.421883 21.9375 -0.0937424 21.8906C0.703133 22.125 1.50001 22.3594 2.20313 22.7813C2.43751 22.9219 2.57813 22.5469 2.76563 22.4063C3.14063 22.125 3.56251 21.9844 4.03126 21.9375C4.45313 21.9375 4.82813 22.0313 5.20313 22.2188C5.43751 22.3594 5.57813 22.6406 5.81251 22.7813C5.90626 22.8281 6.04688 22.6875 6.09376 22.6406C6.23438 22.5 6.42188 22.5 6.60938 22.5469C6.79688 22.5938 6.93751 22.6875 7.03126 22.8281C7.12501 22.9219 7.12501 23.1094 7.31251 23.1094C7.73438 23.0156 8.06251 22.8281 8.53126 22.875C9.00001 22.9219 9.42188 23.1094 9.79688 23.3438C9.98438 23.4844 10.0781 23.2969 10.2656 23.1563C10.4531 22.9688 10.6406 22.8281 10.875 22.6406C12.3281 21.5156 14.1094 22.4063 15.1875 23.5313C15.5625 23.0625 15.9844 22.5 16.6875 22.6875C17.2969 22.8281 17.4844 23.4844 17.6719 24C18.1406 23.5313 18.6563 23.0625 19.3125 22.9688C20.0625 22.875 20.6719 23.2031 21.2813 23.5781C21.375 22.2656 21.7969 21.0938 23.2031 20.8594C24.6094 20.625 25.5469 21.75 25.875 22.9688C27.0469 21.9844 28.5 21.7031 29.9063 22.3594C29.9063 22.2188 29.8594 22.1719 29.7656 22.125V22.125Z" fill="#699635"/>
<path d="M30 27.375C28.9219 26.5312 27.375 26.3437 26.1094 26.9062C25.7813 27.0469 25.4531 27.2812 25.1719 27.5156C24.8438 27.7969 24.7031 27.5625 24.2813 27.4687C23.9531 27.375 23.5781 27.375 23.25 27.4219C23.2031 27.4219 22.5469 27.6094 22.5469 27.6094C22.3594 27.3281 21.9844 27.1875 21.6563 27.1875C21.5156 27.1875 21.375 27.2344 21.2344 27.2812C20.9531 27.375 21 27.375 20.7188 27.1875C20.1094 26.8125 19.4063 26.7187 18.75 26.8594C18.4688 26.9531 18.1406 27.0937 17.9063 27.2344C17.7188 27.375 17.4844 27.75 17.25 27.6562C16.5 27.375 15.7969 27.1875 15.0469 27.0469C15.7969 27.2344 16.5938 27.4687 17.2969 27.8906C17.5313 28.0781 17.625 27.8906 17.7656 27.7031C18.0469 27.375 18.5156 27.2344 18.8906 27.1406C19.3125 27.0937 19.6875 27.0937 20.0625 27.2812C20.3906 27.4219 20.5781 27.6562 20.8125 27.8437C21.0469 28.0312 21.1875 27.8437 21.4219 27.7031C21.7969 27.5156 22.125 27.8437 22.2656 28.125C22.4063 28.3594 22.8281 28.0781 23.0625 28.0312C23.5313 27.9375 24.0469 27.9844 24.4688 28.2187C24.5625 28.2656 24.9844 28.6406 25.125 28.5937C25.3594 28.4062 25.5469 28.125 25.7813 27.9375C27.0938 26.9531 28.9219 27.2344 30.0469 28.4062C30 28.0312 30 27.6094 30 27.375V27.375ZM23.5313 27.9375C23.5313 27.9375 23.5781 27.9375 23.5313 27.9375Z" fill="#699635"/>
<path d="M16.4531 25.8281C15.3281 25.2187 13.9219 25.2656 12.8438 25.9688C12.5625 24.8438 11.5313 23.9062 10.3125 23.9062C9.5625 23.9062 8.8125 24.1406 8.29688 24.6562C8.0625 24.8906 7.82813 25.1719 7.6875 25.4531C7.59375 25.6406 7.59375 25.9688 7.45313 26.1094C6.79688 25.8281 5.95313 25.7812 5.29688 26.0625C5.10938 26.1562 4.73438 26.4844 4.59375 26.2969C4.40625 26.0156 4.07813 25.8281 3.79688 25.6875C3.46875 25.5469 3.09375 25.5469 2.76563 25.5937C2.625 25.6875 2.48438 25.7344 2.34375 25.7812C2.25 25.8281 1.96875 26.1094 1.875 26.0625C1.78125 26.0625 1.64063 25.875 1.54688 25.8281C1.35938 25.6875 1.21875 25.5938 1.03125 25.5C0.703125 25.3594 0.375 25.2188 0 25.1719V25.8281C0 25.9219 0.609375 26.1094 0.75 26.1562C1.21875 26.3906 1.59375 26.8125 1.96875 27.1875C2.34375 26.7188 2.76563 26.1563 3.46875 26.3438C4.07813 26.4844 4.26563 27.1406 4.45313 27.6562C4.92188 27.1875 5.4375 26.7187 6.09375 26.625C6.84375 26.5312 7.45313 26.8594 8.0625 27.2344C8.15625 25.9219 8.57813 24.75 9.98438 24.5156C11.3906 24.2812 12.3281 25.4062 12.6563 26.625C13.8281 25.6406 15.2813 25.3594 16.6875 26.0156C16.6406 25.9219 16.5469 25.875 16.4531 25.8281" fill="#699635"/>
</g>
<defs>
<clipPath id="clip0">
<rect width="30" height="30" rx="5" fill="white"/>
</clipPath>
</defs>
</svg>
