<svg width="30" height="30" viewBox="0 0 30 30" fill="none" xmlns="http://www.w3.org/2000/svg">
<path d="M29.3526 28.6885C29.3526 29.0752 29.0362 29.3916 28.6494 29.3916H1.2724C0.885681 29.3916 0.569275 29.0752 0.569275 28.6885V1.31149C0.569275 0.924774 0.885681 0.608368 1.2724 0.608368H28.6494C29.0361 0.608368 29.3525 0.924774 29.3525 1.31149" fill="#FC7E17"/>
<path d="M15.4495 13.3025C18.5469 13.3025 21.0578 10.7916 21.0578 7.69424C21.0578 4.59689 18.5469 2.086 15.4495 2.086C12.3522 2.086 9.84128 4.59689 9.84128 7.69424C9.84128 10.7916 12.3522 13.3025 15.4495 13.3025Z" fill="#FFC033"/>
<path d="M26.674 29.3916V19.4466C26.674 19.4217 26.6789 19.397 26.6885 19.3739C26.698 19.3509 26.712 19.3299 26.7297 19.3123C26.7473 19.2947 26.7682 19.2807 26.7913 19.2711C26.8143 19.2616 26.839 19.2567 26.864 19.2567H29.3526V28.6885C29.3526 29.0752 29.0362 29.3916 28.6494 29.3916H26.674V29.3916ZM3.70527 15.8463H0.569275V28.6885C0.569275 29.0752 0.885681 29.3916 1.2724 29.3916H3.89523V16.0362C3.89524 16.0113 3.89033 15.9866 3.88079 15.9635C3.87124 15.9405 3.85725 15.9195 3.83961 15.9019C3.82197 15.8843 3.80103 15.8703 3.77797 15.8607C3.75492 15.8512 3.73022 15.8463 3.70527 15.8463V15.8463ZM25.252 11.9446H17.1733C17.1084 11.9446 17.0462 11.9704 17.0003 12.0162C16.9544 12.0621 16.9286 12.1244 16.9286 12.1893V29.3917H25.4966V12.1893C25.4966 12.1571 25.4903 12.1253 25.478 12.0956C25.4657 12.066 25.4477 12.039 25.425 12.0163C25.4023 11.9935 25.3753 11.9755 25.3456 11.9632C25.3159 11.9509 25.2841 11.9446 25.252 11.9446V11.9446ZM13.671 18.2749H8.52349C8.48214 18.2749 8.44248 18.2913 8.41324 18.3205C8.384 18.3498 8.36757 18.3894 8.36757 18.4308V29.3917H13.8268V18.4307C13.8268 18.3894 13.8104 18.3498 13.7812 18.3205C13.7519 18.2913 13.7123 18.2749 13.671 18.2749Z" fill="#D1552A"/>
<path d="M1.47924 19.5959H0.984705C0.948341 19.5959 0.913467 19.5815 0.887754 19.5557C0.862041 19.53 0.847595 19.4952 0.847595 19.4588V17.9408C0.847595 17.9044 0.862041 17.8695 0.887754 17.8438C0.913467 17.8181 0.948341 17.8036 0.984705 17.8036H1.47924C1.5156 17.8036 1.55047 17.8181 1.57619 17.8438C1.6019 17.8695 1.61635 17.9044 1.61635 17.9408V19.4588C1.61635 19.4952 1.6019 19.53 1.57619 19.5557C1.55047 19.5815 1.5156 19.5959 1.47924 19.5959V19.5959ZM3.06437 19.4589V17.9408C3.06437 17.9044 3.04993 17.8696 3.02421 17.8439C2.9985 17.8181 2.96363 17.8037 2.92726 17.8037H2.43273C2.39637 17.8037 2.36149 17.8181 2.33578 17.8439C2.31007 17.8696 2.29562 17.9044 2.29562 17.9408V19.4589C2.29562 19.4952 2.31007 19.5301 2.33578 19.5558C2.36149 19.5815 2.39637 19.596 2.43273 19.596H2.92726C2.96362 19.5959 2.99849 19.5815 3.0242 19.5558C3.04991 19.5301 3.06436 19.4952 3.06437 19.4589V19.4589ZM1.61635 22.279V20.7609C1.61635 20.7246 1.6019 20.6897 1.57619 20.664C1.55047 20.6383 1.5156 20.6238 1.47924 20.6238H0.984705C0.948341 20.6238 0.913467 20.6383 0.887754 20.664C0.862041 20.6897 0.847595 20.7246 0.847595 20.7609V22.279C0.847595 22.3153 0.862041 22.3502 0.887754 22.3759C0.913467 22.4016 0.948341 22.4161 0.984705 22.4161H1.47924C1.51559 22.4161 1.55046 22.4016 1.57617 22.3759C1.60188 22.3502 1.61633 22.3153 1.61635 22.279V22.279ZM3.06437 22.279V20.7609C3.06437 20.7246 3.04993 20.6897 3.02421 20.664C2.9985 20.6383 2.96363 20.6238 2.92726 20.6238H2.43273C2.39637 20.6238 2.36149 20.6383 2.33578 20.664C2.31007 20.6897 2.29562 20.7246 2.29562 20.7609V22.279C2.29562 22.3153 2.31007 22.3502 2.33578 22.3759C2.36149 22.4016 2.39637 22.4161 2.43273 22.4161H2.92726C2.96362 22.4161 2.99849 22.4016 3.0242 22.3759C3.04991 22.3502 3.06436 22.3153 3.06437 22.279V22.279ZM1.61635 25.0349V23.5169C1.61635 23.4805 1.6019 23.4456 1.57619 23.4199C1.55047 23.3942 1.5156 23.3798 1.47924 23.3798H0.984705C0.948341 23.3798 0.913467 23.3942 0.887754 23.4199C0.862041 23.4456 0.847595 23.4805 0.847595 23.5169V25.0349C0.847595 25.0713 0.862041 25.1062 0.887754 25.1319C0.913467 25.1576 0.948341 25.172 0.984705 25.172H1.47924C1.51559 25.172 1.55046 25.1576 1.57617 25.1319C1.60188 25.1062 1.61633 25.0713 1.61635 25.0349V25.0349ZM3.06437 25.0349V23.5169C3.06437 23.4805 3.04993 23.4456 3.02421 23.4199C2.9985 23.3942 2.96363 23.3798 2.92726 23.3798H2.43273C2.39637 23.3798 2.36149 23.3942 2.33578 23.4199C2.31007 23.4456 2.29562 23.4805 2.29562 23.5169V25.0349C2.29562 25.0713 2.31007 25.1062 2.33578 25.1319C2.36149 25.1576 2.39637 25.172 2.43273 25.172H2.92726C2.96362 25.172 2.99849 25.1576 3.0242 25.1319C3.04991 25.1062 3.06436 25.0713 3.06437 25.0349V25.0349ZM1.61635 27.855V26.337C1.61635 26.3006 1.6019 26.2658 1.57619 26.24C1.55047 26.2143 1.5156 26.1999 1.47924 26.1999H0.984705C0.948341 26.1999 0.913467 26.2143 0.887754 26.24C0.862041 26.2658 0.847595 26.3006 0.847595 26.337V27.855C0.847595 27.8914 0.862041 27.9263 0.887754 27.952C0.913467 27.9777 0.948341 27.9922 0.984705 27.9922H1.47924C1.51559 27.9921 1.55046 27.9777 1.57617 27.952C1.60188 27.9263 1.61633 27.8914 1.61635 27.855V27.855ZM3.06437 27.855V26.337C3.06437 26.3006 3.04993 26.2658 3.02421 26.24C2.9985 26.2143 2.96363 26.1999 2.92726 26.1999H2.43273C2.39637 26.1999 2.36149 26.2143 2.33578 26.24C2.31007 26.2658 2.29562 26.3006 2.29562 26.337V27.855C2.29562 27.8914 2.31007 27.9263 2.33578 27.952C2.36149 27.9777 2.39637 27.9922 2.43273 27.9922H2.92726C2.96362 27.9921 2.99849 27.9777 3.0242 27.952C3.04991 27.9263 3.06436 27.8914 3.06437 27.855V27.855ZM20.6962 16.5977V14.6424C20.6962 14.5956 20.6776 14.5506 20.6445 14.5175C20.6114 14.4844 20.5665 14.4658 20.5196 14.4658H19.8827C19.8358 14.4658 19.7909 14.4844 19.7578 14.5175C19.7247 14.5506 19.706 14.5956 19.706 14.6424V16.5977C19.706 16.6446 19.7247 16.6895 19.7578 16.7226C19.7909 16.7557 19.8358 16.7743 19.8827 16.7743H20.5196C20.5665 16.7743 20.6114 16.7557 20.6445 16.7226C20.6776 16.6895 20.6962 16.6446 20.6962 16.5977V16.5977ZM22.5613 16.5977V14.6424C22.5613 14.6192 22.5568 14.5962 22.5479 14.5748C22.539 14.5534 22.526 14.5339 22.5096 14.5175C22.4932 14.5011 22.4737 14.4881 22.4523 14.4792C22.4309 14.4704 22.4079 14.4658 22.3847 14.4658H21.7477C21.7009 14.4658 21.656 14.4844 21.6229 14.5175C21.5898 14.5506 21.5711 14.5956 21.5711 14.6424V16.5977C21.5711 16.6446 21.5898 16.6895 21.6229 16.7226C21.656 16.7557 21.7009 16.7743 21.7477 16.7743H22.3847C22.4079 16.7743 22.4309 16.7698 22.4523 16.7609C22.4737 16.752 22.4932 16.739 22.5096 16.7226C22.526 16.7062 22.539 16.6867 22.5479 16.6653C22.5568 16.6439 22.5613 16.6209 22.5613 16.5977V16.5977ZM24.4264 16.5977V14.6424C24.4264 14.5956 24.4078 14.5506 24.3747 14.5175C24.3416 14.4844 24.2967 14.4658 24.2498 14.4658H23.6128C23.566 14.4658 23.5211 14.4844 23.488 14.5175C23.4549 14.5506 23.4362 14.5956 23.4362 14.6424V16.5977C23.4362 16.6446 23.4549 16.6895 23.488 16.7226C23.5211 16.7557 23.566 16.7743 23.6128 16.7743H24.2498C24.273 16.7743 24.296 16.7698 24.3174 16.7609C24.3388 16.752 24.3583 16.739 24.3747 16.7226C24.3911 16.7062 24.4041 16.6867 24.413 16.6653C24.4219 16.6439 24.4264 16.6209 24.4264 16.5977V16.5977ZM20.6962 20.2302V18.2749C20.6962 18.228 20.6776 18.1831 20.6445 18.15C20.6114 18.1169 20.5665 18.0983 20.5196 18.0983H19.8827C19.8358 18.0983 19.7909 18.1169 19.7578 18.15C19.7247 18.1831 19.706 18.228 19.706 18.2749V20.2302C19.706 20.277 19.7247 20.3219 19.7578 20.3551C19.7909 20.3882 19.8358 20.4068 19.8827 20.4068H20.5196C20.5665 20.4068 20.6114 20.3882 20.6445 20.355C20.6776 20.3219 20.6962 20.277 20.6962 20.2302V20.2302ZM22.5613 20.2302V18.2749C22.5613 18.228 22.5427 18.1831 22.5096 18.15C22.4765 18.1169 22.4316 18.0983 22.3847 18.0983H21.7477C21.7009 18.0983 21.656 18.1169 21.6229 18.15C21.5898 18.1831 21.5711 18.228 21.5711 18.2749V20.2302C21.5711 20.277 21.5898 20.3219 21.6229 20.3551C21.656 20.3882 21.7009 20.4068 21.7477 20.4068H22.3847C22.4316 20.4068 22.4765 20.3882 22.5096 20.3551C22.5427 20.3219 22.5613 20.277 22.5613 20.2302V20.2302ZM24.4264 20.2302V18.2749C24.4264 18.228 24.4078 18.1831 24.3747 18.15C24.3416 18.1169 24.2967 18.0983 24.2498 18.0983H23.6128C23.566 18.0983 23.5211 18.1169 23.488 18.15C23.4549 18.1831 23.4362 18.228 23.4362 18.2749V20.2302C23.4362 20.277 23.4549 20.3219 23.488 20.3551C23.5211 20.3882 23.566 20.4068 23.6128 20.4068H24.2498C24.2967 20.4068 24.3416 20.3882 24.3747 20.3551C24.4078 20.3219 24.4264 20.277 24.4264 20.2302V20.2302ZM20.6962 23.78V21.8246C20.6962 21.7778 20.6776 21.7329 20.6445 21.6998C20.6114 21.6666 20.5665 21.648 20.5196 21.648H19.8827C19.8358 21.648 19.7909 21.6666 19.7578 21.6998C19.7247 21.7329 19.706 21.7778 19.706 21.8246V23.78C19.706 23.8268 19.7247 23.8717 19.7578 23.9048C19.7909 23.938 19.8358 23.9566 19.8827 23.9566H20.5196C20.5665 23.9566 20.6114 23.938 20.6445 23.9048C20.6776 23.8717 20.6962 23.8268 20.6962 23.78V23.78ZM22.5613 23.78V21.8246C22.5613 21.7778 22.5427 21.7329 22.5096 21.6998C22.4765 21.6666 22.4316 21.648 22.3847 21.648H21.7477C21.7246 21.648 21.7016 21.6526 21.6802 21.6615C21.6587 21.6704 21.6393 21.6834 21.6229 21.6998C21.6065 21.7162 21.5935 21.7356 21.5846 21.7571C21.5757 21.7785 21.5711 21.8014 21.5711 21.8246V23.78C21.5711 23.8032 21.5757 23.8261 21.5846 23.8476C21.5935 23.869 21.6065 23.8884 21.6229 23.9048C21.6393 23.9212 21.6587 23.9343 21.6802 23.9431C21.7016 23.952 21.7246 23.9566 21.7477 23.9566H22.3847C22.4079 23.9566 22.4309 23.952 22.4523 23.9431C22.4737 23.9343 22.4932 23.9213 22.5096 23.9049C22.526 23.8885 22.539 23.869 22.5479 23.8476C22.5568 23.8261 22.5613 23.8032 22.5613 23.78V23.78ZM20.6962 27.4124V25.4571C20.6962 25.4103 20.6776 25.3653 20.6445 25.3322C20.6114 25.2991 20.5665 25.2805 20.5196 25.2805H19.8827C19.8358 25.2805 19.7909 25.2991 19.7578 25.3322C19.7247 25.3653 19.706 25.4103 19.706 25.4571V27.4124C19.706 27.4593 19.7247 27.5042 19.7578 27.5373C19.7909 27.5704 19.8358 27.589 19.8827 27.589H20.5196C20.5665 27.589 20.6114 27.5704 20.6445 27.5373C20.6776 27.5042 20.6962 27.4593 20.6962 27.4124V27.4124ZM22.5613 27.4124V25.4571C22.5613 25.4103 22.5427 25.3653 22.5096 25.3322C22.4765 25.2991 22.4316 25.2805 22.3847 25.2805H21.7477C21.7246 25.2805 21.7016 25.2851 21.6802 25.2939C21.6587 25.3028 21.6393 25.3158 21.6229 25.3322C21.6065 25.3486 21.5935 25.3681 21.5846 25.3895C21.5757 25.4109 21.5711 25.4339 21.5711 25.4571V27.4124C21.5711 27.4356 21.5757 27.4586 21.5846 27.48C21.5935 27.5014 21.6065 27.5209 21.6229 27.5373C21.6393 27.5537 21.6587 27.5667 21.6802 27.5756C21.7016 27.5845 21.7246 27.589 21.7477 27.589H22.3847C22.4316 27.589 22.4765 27.5704 22.5096 27.5373C22.5427 27.5042 22.5613 27.4593 22.5613 27.4124V27.4124Z" fill="#ED8135"/>
<path d="M20.0595 14.4161V29.3916H12.6007V14.4161C12.6007 14.3881 12.6062 14.3604 12.6169 14.3345C12.6276 14.3087 12.6433 14.2852 12.6631 14.2654C12.6829 14.2457 12.7063 14.23 12.7322 14.2193C12.758 14.2086 12.7857 14.2031 12.8137 14.2031H19.8465C19.8745 14.2031 19.9022 14.2086 19.928 14.2193C19.9539 14.23 19.9774 14.2457 19.9972 14.2654C20.0169 14.2852 20.0326 14.3087 20.0433 14.3345C20.054 14.3604 20.0595 14.3881 20.0595 14.4161V14.4161ZM28.0379 21.6613H21.8489C21.8283 21.6613 21.8081 21.6662 21.7897 21.6756C21.7714 21.6849 21.7556 21.6986 21.7436 21.7153C21.7316 21.732 21.7238 21.7513 21.7207 21.7716C21.7176 21.792 21.7195 21.8128 21.726 21.8323L21.9588 22.524C21.9659 22.5449 21.9781 22.5629 21.9935 22.5773C21.9904 22.5887 21.9887 22.6004 21.9885 22.6123V29.3916H27.8983V22.6123C27.8983 22.6001 27.8963 22.5885 27.8934 22.5773C27.9088 22.5629 27.921 22.5449 27.928 22.524L28.1608 21.8323C28.1674 21.8128 28.1692 21.792 28.1661 21.7716C28.1631 21.7513 28.1552 21.732 28.1432 21.7153C28.1312 21.6986 28.1154 21.685 28.0971 21.6756C28.0788 21.6662 28.0585 21.6613 28.0379 21.6613Z" fill="#2B3B47"/>
<path d="M11.155 13.3802C11.2223 13.3802 11.2869 13.3534 11.3345 13.3058C11.3821 13.2582 11.4089 13.1936 11.4089 13.1263V12.5122C11.4089 12.4449 11.3821 12.3803 11.3345 12.3327C11.2869 12.2851 11.2223 12.2583 11.155 12.2583H9.3673V11.3669C9.56629 11.2936 9.70849 11.1029 9.70849 10.8785V9.83654C9.7085 9.76812 9.69503 9.70038 9.66885 9.63717C9.64268 9.57396 9.6043 9.51653 9.55593 9.46815C9.50755 9.41977 9.45012 9.3814 9.38691 9.35522C9.3237 9.32904 9.25595 9.31557 9.18754 9.31558H4.53086C4.46244 9.31557 4.3947 9.32904 4.33149 9.35522C4.26828 9.3814 4.21084 9.41977 4.16247 9.46815C4.11409 9.51653 4.07572 9.57396 4.04954 9.63717C4.02336 9.70038 4.00989 9.76812 4.0099 9.83654V10.8785C4.0099 11.1029 4.15211 11.2936 4.35109 11.3669V12.2583H2.5634C2.49606 12.2583 2.43148 12.2851 2.38387 12.3327C2.33626 12.3803 2.30951 12.4449 2.30951 12.5122V13.1263C2.30951 13.1936 2.33626 13.2582 2.38387 13.3058C2.43148 13.3534 2.49606 13.3802 2.5634 13.3802H2.68345V17.2869H2.5634C2.53006 17.2869 2.49704 17.2934 2.46624 17.3062C2.43543 17.3189 2.40745 17.3376 2.38387 17.3612C2.3603 17.3848 2.34159 17.4128 2.32884 17.4436C2.31608 17.4744 2.30951 17.5074 2.30951 17.5407V18.1548C2.30951 18.2221 2.33626 18.2867 2.38387 18.3343C2.43148 18.3819 2.49606 18.4087 2.5634 18.4087H2.68345V25.4684H2.5634C2.49606 25.4684 2.43148 25.4951 2.38387 25.5427C2.33626 25.5903 2.30951 25.6549 2.30951 25.7222V26.3363C2.30951 26.4036 2.33626 26.4682 2.38387 26.5158C2.43148 26.5634 2.49606 26.5902 2.5634 26.5902H2.68345V29.3916H11.0973V26.5902H11.1551C11.2224 26.5902 11.287 26.5634 11.3346 26.5158C11.3822 26.4682 11.4089 26.4036 11.4089 26.3363V25.7222C11.4089 25.6549 11.3822 25.5903 11.3346 25.5427C11.287 25.4951 11.2224 25.4684 11.1551 25.4684H11.0973V18.4087H11.1551C11.2224 18.4087 11.287 18.382 11.3346 18.3344C11.3822 18.2868 11.4089 18.2222 11.4089 18.1549V17.5408C11.4089 17.5075 11.4024 17.4744 11.3896 17.4436C11.3769 17.4128 11.3582 17.3848 11.3346 17.3613C11.311 17.3377 11.283 17.319 11.2522 17.3062C11.2214 17.2935 11.1884 17.2869 11.1551 17.2869H11.0973V13.3802H11.155V13.3802ZM8.90939 12.2583H4.809V11.3994H8.90939V12.2583Z" fill="#2B3B47"/>
<path d="M14.1031 18.4076H13.5486C13.5078 18.4076 13.4687 18.3914 13.4399 18.3626C13.411 18.3338 13.3948 18.2947 13.3948 18.2539V16.5517C13.3948 16.5315 13.3988 16.5115 13.4065 16.4928C13.4143 16.4742 13.4256 16.4572 13.4399 16.443C13.4542 16.4287 13.4711 16.4174 13.4898 16.4096C13.5084 16.4019 13.5284 16.3979 13.5486 16.3979H14.1031C14.1233 16.3979 14.1433 16.4019 14.162 16.4096C14.1806 16.4174 14.1976 16.4287 14.2118 16.443C14.2261 16.4572 14.2374 16.4742 14.2452 16.4928C14.2529 16.5115 14.2569 16.5315 14.2569 16.5517V18.2539C14.2569 18.2947 14.2407 18.3338 14.2118 18.3626C14.183 18.3914 14.1439 18.4076 14.1031 18.4076V18.4076ZM15.8805 18.2539V16.5517C15.8805 16.5315 15.8765 16.5115 15.8688 16.4928C15.8611 16.4742 15.8498 16.4572 15.8355 16.443C15.8212 16.4287 15.8043 16.4174 15.7856 16.4096C15.7669 16.4019 15.747 16.3979 15.7268 16.3979H15.1722C15.152 16.3979 15.132 16.4019 15.1134 16.4096C15.0947 16.4174 15.0778 16.4287 15.0635 16.443C15.0492 16.4572 15.0379 16.4742 15.0302 16.4928C15.0225 16.5115 15.0185 16.5315 15.0185 16.5517V18.2539C15.0185 18.2947 15.0347 18.3338 15.0635 18.3626C15.0923 18.3914 15.1315 18.4076 15.1722 18.4076H15.7268C15.7675 18.4076 15.8066 18.3914 15.8355 18.3626C15.8643 18.3338 15.8805 18.2947 15.8805 18.2539V18.2539ZM17.5042 18.2539V16.5517C17.5042 16.5315 17.5002 16.5115 17.4925 16.4928C17.4848 16.4742 17.4734 16.4572 17.4592 16.443C17.4449 16.4287 17.4279 16.4174 17.4093 16.4096C17.3906 16.4019 17.3706 16.3979 17.3505 16.3979H16.7959C16.7757 16.3979 16.7557 16.4019 16.7371 16.4096C16.7184 16.4174 16.7015 16.4287 16.6872 16.443C16.6729 16.4572 16.6616 16.4742 16.6539 16.4928C16.6461 16.5115 16.6422 16.5315 16.6422 16.5517V18.2539C16.6422 18.2741 16.6461 18.2941 16.6539 18.3127C16.6616 18.3314 16.6729 18.3483 16.6872 18.3626C16.7015 18.3769 16.7184 18.3882 16.7371 18.3959C16.7557 18.4037 16.7757 18.4076 16.7959 18.4076H17.3505C17.3912 18.4076 17.4303 18.3914 17.4592 18.3626C17.488 18.3338 17.5042 18.2947 17.5042 18.2539ZM19.1279 18.2539V16.5517C19.1279 16.5315 19.1239 16.5115 19.1162 16.4928C19.1085 16.4742 19.0971 16.4572 19.0829 16.443C19.0686 16.4287 19.0516 16.4174 19.033 16.4096C19.0143 16.4019 18.9943 16.3979 18.9741 16.3979H18.4196C18.3994 16.3979 18.3794 16.4019 18.3608 16.4096C18.3421 16.4174 18.3252 16.4287 18.3109 16.443C18.2966 16.4572 18.2853 16.4742 18.2776 16.4928C18.2698 16.5115 18.2659 16.5315 18.2659 16.5517V18.2539C18.2659 18.2947 18.2821 18.3338 18.3109 18.3626C18.3397 18.3914 18.3788 18.4076 18.4196 18.4076H18.9741C18.9943 18.4076 19.0143 18.4037 19.033 18.3959C19.0516 18.3882 19.0686 18.3769 19.0829 18.3626C19.0971 18.3483 19.1085 18.3314 19.1162 18.3127C19.1239 18.2941 19.1279 18.2741 19.1279 18.2539ZM14.2568 21.4161V19.7139C14.2568 19.6731 14.2406 19.634 14.2118 19.6052C14.183 19.5764 14.1438 19.5602 14.1031 19.5602H13.5485C13.5078 19.5602 13.4687 19.5764 13.4398 19.6052C13.411 19.634 13.3948 19.6731 13.3948 19.7139V21.4161C13.3948 21.4569 13.411 21.496 13.4398 21.5248C13.4687 21.5537 13.5078 21.5699 13.5485 21.5699H14.1031C14.1438 21.5699 14.183 21.5537 14.2118 21.5248C14.2406 21.496 14.2568 21.4569 14.2568 21.4161V21.4161ZM15.8805 21.4161V19.7139C15.8805 19.6731 15.8643 19.634 15.8355 19.6052C15.8066 19.5764 15.7675 19.5602 15.7268 19.5602H15.1722C15.1315 19.5602 15.0923 19.5764 15.0635 19.6052C15.0347 19.634 15.0185 19.6731 15.0185 19.7139V21.4161C15.0185 21.4569 15.0347 21.496 15.0635 21.5248C15.0923 21.5537 15.1315 21.5699 15.1722 21.5699H15.7268C15.7675 21.5699 15.8066 21.5537 15.8355 21.5248C15.8643 21.496 15.8805 21.4569 15.8805 21.4161V21.4161ZM17.5042 21.4161V19.7139C17.5042 19.6937 17.5002 19.6737 17.4925 19.6551C17.4848 19.6364 17.4734 19.6195 17.4592 19.6052C17.4449 19.5909 17.4279 19.5796 17.4093 19.5719C17.3906 19.5642 17.3706 19.5602 17.3505 19.5602H16.7959C16.7551 19.5602 16.716 19.5764 16.6872 19.6052C16.6584 19.634 16.6422 19.6731 16.6422 19.7139V21.4161C16.6422 21.4569 16.6584 21.496 16.6872 21.5248C16.716 21.5537 16.7551 21.5699 16.7959 21.5699H17.3505C17.3912 21.5699 17.4303 21.5537 17.4592 21.5248C17.488 21.496 17.5042 21.4569 17.5042 21.4161V21.4161ZM19.1279 21.4161V19.7139C19.1279 19.6731 19.1117 19.634 19.0829 19.6052C19.054 19.5764 19.0149 19.5602 18.9741 19.5602H18.4196C18.3788 19.5602 18.3397 19.5764 18.3109 19.6052C18.2821 19.634 18.2659 19.6731 18.2659 19.7139V21.4161C18.2659 21.4569 18.2821 21.496 18.3109 21.5248C18.3397 21.5537 18.3788 21.5699 18.4196 21.5699H18.9741C19.0149 21.5699 19.054 21.5537 19.0828 21.5248C19.1117 21.496 19.1279 21.4569 19.1279 21.4161V21.4161ZM14.2568 24.5064V22.8042C14.2568 22.7634 14.2406 22.7243 14.2118 22.6955C14.183 22.6667 14.1438 22.6505 14.1031 22.6505H13.5485C13.5078 22.6505 13.4687 22.6667 13.4398 22.6955C13.411 22.7243 13.3948 22.7634 13.3948 22.8042V24.5064C13.3948 24.5472 13.411 24.5863 13.4398 24.6151C13.4687 24.644 13.5078 24.6602 13.5485 24.6602H14.1031C14.1438 24.6602 14.183 24.644 14.2118 24.6151C14.2406 24.5863 14.2568 24.5472 14.2568 24.5064ZM15.8805 24.5064V22.8042C15.8805 22.7634 15.8643 22.7243 15.8355 22.6955C15.8066 22.6667 15.7675 22.6505 15.7268 22.6505H15.1722C15.152 22.6505 15.132 22.6544 15.1134 22.6622C15.0947 22.6699 15.0778 22.6812 15.0635 22.6955C15.0492 22.7098 15.0379 22.7267 15.0302 22.7454C15.0225 22.764 15.0185 22.784 15.0185 22.8042V24.5064C15.0185 24.5266 15.0225 24.5466 15.0302 24.5653C15.0379 24.5839 15.0492 24.6009 15.0635 24.6151C15.0778 24.6294 15.0947 24.6407 15.1134 24.6485C15.132 24.6562 15.152 24.6602 15.1722 24.6602H15.7268C15.7675 24.6602 15.8066 24.644 15.8355 24.6151C15.8643 24.5863 15.8805 24.5472 15.8805 24.5064V24.5064ZM17.5042 24.5064V22.8042C17.5042 22.7634 17.488 22.7243 17.4592 22.6955C17.4303 22.6667 17.3912 22.6505 17.3505 22.6505H16.7959C16.7551 22.6505 16.716 22.6667 16.6872 22.6955C16.6584 22.7243 16.6422 22.7634 16.6422 22.8042V24.5064C16.6422 24.5472 16.6584 24.5863 16.6872 24.6151C16.716 24.644 16.7551 24.6602 16.7959 24.6602H17.3505C17.3912 24.6602 17.4303 24.644 17.4592 24.6151C17.488 24.5863 17.5042 24.5472 17.5042 24.5064V24.5064ZM19.1279 24.5064V22.8042C19.1279 22.7634 19.1117 22.7243 19.0829 22.6955C19.054 22.6667 19.0149 22.6505 18.9741 22.6505H18.4196C18.3788 22.6505 18.3397 22.6667 18.3109 22.6955C18.2821 22.7243 18.2659 22.7634 18.2659 22.8042V24.5064C18.2659 24.5472 18.2821 24.5863 18.3109 24.6151C18.3397 24.644 18.3788 24.6602 18.4196 24.6602H18.9741C19.0149 24.6602 19.054 24.644 19.0828 24.6151C19.1117 24.5863 19.1279 24.5472 19.1279 24.5064V24.5064ZM14.2568 27.6686V25.9664C14.2568 25.9462 14.2528 25.9262 14.2451 25.9076C14.2374 25.8889 14.2261 25.872 14.2118 25.8577C14.1975 25.8434 14.1806 25.8321 14.1619 25.8244C14.1433 25.8166 14.1233 25.8127 14.1031 25.8127H13.5485C13.5283 25.8127 13.5084 25.8166 13.4897 25.8244C13.471 25.8321 13.4541 25.8434 13.4398 25.8577C13.4255 25.872 13.4142 25.8889 13.4065 25.9076C13.3988 25.9262 13.3948 25.9462 13.3948 25.9664V27.6686C13.3948 27.6888 13.3988 27.7088 13.4065 27.7274C13.4142 27.7461 13.4255 27.763 13.4398 27.7773C13.4541 27.7916 13.471 27.8029 13.4897 27.8107C13.5084 27.8184 13.5283 27.8224 13.5485 27.8224H14.1031C14.1233 27.8224 14.1433 27.8184 14.1619 27.8107C14.1806 27.8029 14.1975 27.7916 14.2118 27.7773C14.2261 27.763 14.2374 27.7461 14.2451 27.7274C14.2528 27.7088 14.2568 27.6888 14.2568 27.6686V27.6686ZM15.8805 27.6686V25.9664C15.8805 25.9462 15.8765 25.9262 15.8688 25.9076C15.8611 25.8889 15.8498 25.872 15.8355 25.8577C15.8212 25.8434 15.8043 25.8321 15.7856 25.8244C15.7669 25.8166 15.747 25.8127 15.7268 25.8127H15.1722C15.152 25.8127 15.132 25.8166 15.1134 25.8244C15.0947 25.8321 15.0778 25.8434 15.0635 25.8577C15.0492 25.872 15.0379 25.8889 15.0302 25.9076C15.0225 25.9262 15.0185 25.9462 15.0185 25.9664V27.6686C15.0185 27.6888 15.0225 27.7088 15.0302 27.7274C15.0379 27.7461 15.0492 27.763 15.0635 27.7773C15.0778 27.7916 15.0947 27.8029 15.1134 27.8107C15.132 27.8184 15.152 27.8224 15.1722 27.8224H15.7268C15.747 27.8224 15.7669 27.8184 15.7856 27.8107C15.8043 27.8029 15.8212 27.7916 15.8355 27.7773C15.8498 27.763 15.8611 27.7461 15.8688 27.7274C15.8765 27.7088 15.8805 27.6888 15.8805 27.6686ZM17.5042 27.6686V25.9664C17.5042 25.9462 17.5002 25.9262 17.4925 25.9076C17.4848 25.8889 17.4734 25.872 17.4592 25.8577C17.4449 25.8434 17.4279 25.8321 17.4093 25.8244C17.3906 25.8166 17.3706 25.8127 17.3505 25.8127H16.7959C16.7757 25.8127 16.7557 25.8166 16.7371 25.8244C16.7184 25.8321 16.7015 25.8434 16.6872 25.8577C16.6729 25.872 16.6616 25.8889 16.6539 25.9076C16.6461 25.9262 16.6422 25.9462 16.6422 25.9664V27.6686C16.6422 27.6888 16.6461 27.7088 16.6539 27.7274C16.6616 27.7461 16.6729 27.763 16.6872 27.7773C16.7015 27.7916 16.7184 27.8029 16.7371 27.8107C16.7557 27.8184 16.7757 27.8224 16.7959 27.8224H17.3505C17.3706 27.8224 17.3906 27.8184 17.4093 27.8107C17.4279 27.8029 17.4449 27.7916 17.4592 27.7773C17.4734 27.763 17.4848 27.7461 17.4925 27.7274C17.5002 27.7088 17.5042 27.6888 17.5042 27.6686V27.6686ZM19.1279 27.6686V25.9664C19.1279 25.9462 19.1239 25.9262 19.1162 25.9076C19.1085 25.8889 19.0971 25.872 19.0829 25.8577C19.0686 25.8434 19.0516 25.8321 19.033 25.8244C19.0143 25.8166 18.9943 25.8127 18.9741 25.8127H18.4196C18.3994 25.8127 18.3794 25.8166 18.3608 25.8244C18.3421 25.8321 18.3252 25.8434 18.3109 25.8577C18.2966 25.872 18.2853 25.8889 18.2776 25.9076C18.2698 25.9262 18.2659 25.9462 18.2659 25.9664V27.6686C18.2659 27.6888 18.2698 27.7088 18.2776 27.7274C18.2853 27.7461 18.2966 27.763 18.3109 27.7773C18.3252 27.7916 18.3421 27.8029 18.3608 27.8107C18.3794 27.8184 18.3994 27.8224 18.4196 27.8224H18.9741C18.9943 27.8224 19.0143 27.8184 19.033 27.8107C19.0516 27.8029 19.0686 27.7916 19.0829 27.7773C19.0971 27.763 19.1085 27.7461 19.1162 27.7274C19.1239 27.7088 19.1279 27.6888 19.1279 27.6686ZM4.35512 21.3361V19.8038C4.35512 19.7671 4.34054 19.7319 4.31458 19.7059C4.28863 19.68 4.25343 19.6654 4.21672 19.6654H3.71756C3.68086 19.6654 3.64565 19.68 3.6197 19.7059C3.59374 19.7319 3.57916 19.7671 3.57916 19.8038V21.3361C3.57916 21.3728 3.59374 21.408 3.6197 21.434C3.64565 21.4599 3.68086 21.4745 3.71756 21.4745H4.21672C4.25342 21.4745 4.28862 21.4599 4.31457 21.4339C4.34052 21.408 4.3551 21.3728 4.35512 21.3361ZM5.81668 21.3361V19.8038C5.81668 19.7671 5.8021 19.7319 5.77615 19.7059C5.75019 19.68 5.71499 19.6654 5.67828 19.6654H5.17912C5.14242 19.6654 5.10722 19.68 5.08126 19.7059C5.05531 19.7319 5.04073 19.7671 5.04073 19.8038V21.3361C5.04073 21.3728 5.05531 21.408 5.08126 21.434C5.10722 21.4599 5.14242 21.4745 5.17912 21.4745H5.67828C5.71498 21.4745 5.75018 21.4599 5.77613 21.4339C5.80208 21.408 5.81667 21.3728 5.81668 21.3361V21.3361ZM7.27824 21.3361V19.8038C7.27824 19.7671 7.26366 19.7319 7.23771 19.7059C7.21175 19.68 7.17655 19.6654 7.13985 19.6654H6.64069C6.60398 19.6654 6.56878 19.68 6.54282 19.7059C6.51687 19.7319 6.50229 19.7671 6.50229 19.8038V21.3361C6.50229 21.3728 6.51687 21.408 6.54282 21.434C6.56878 21.4599 6.60398 21.4745 6.64069 21.4745H7.13985C7.17655 21.4745 7.21174 21.4599 7.23769 21.4339C7.26364 21.408 7.27823 21.3728 7.27824 21.3361ZM8.73981 21.3361V19.8038C8.73981 19.7671 8.72523 19.7319 8.69927 19.7059C8.67332 19.68 8.63811 19.6654 8.60141 19.6654H8.10225C8.06554 19.6654 8.03034 19.68 8.00439 19.7059C7.97843 19.7319 7.96385 19.7671 7.96385 19.8038V21.3361C7.96385 21.3728 7.97843 21.408 8.00439 21.434C8.03034 21.4599 8.06554 21.4745 8.10225 21.4745H8.60141C8.63811 21.4745 8.6733 21.4599 8.69925 21.4339C8.72521 21.408 8.73979 21.3728 8.73981 21.3361ZM10.2014 21.3361V19.8038C10.2014 19.7671 10.1868 19.7319 10.1609 19.7059C10.1349 19.68 10.0997 19.6654 10.063 19.6654H9.56387C9.52716 19.6654 9.49196 19.68 9.46601 19.7059C9.44005 19.7319 9.42547 19.7671 9.42547 19.8038V21.3361C9.42547 21.3728 9.44005 21.408 9.46601 21.434C9.49196 21.4599 9.52716 21.4745 9.56387 21.4745H10.063C10.0997 21.4745 10.1349 21.4599 10.1609 21.4339C10.1868 21.408 10.2014 21.3728 10.2014 21.3361ZM4.35512 16.2298V14.6975C4.35512 14.6608 4.34054 14.6256 4.31458 14.5997C4.28863 14.5737 4.25343 14.5591 4.21672 14.5591H3.71756C3.69939 14.5591 3.68139 14.5627 3.6646 14.5697C3.64781 14.5766 3.63255 14.5868 3.6197 14.5997C3.60685 14.6125 3.59665 14.6278 3.5897 14.6446C3.58274 14.6614 3.57916 14.6794 3.57916 14.6975V16.2298C3.57916 16.248 3.58274 16.266 3.5897 16.2828C3.59665 16.2996 3.60685 16.3148 3.6197 16.3277C3.63255 16.3405 3.64781 16.3507 3.6646 16.3577C3.68139 16.3646 3.69939 16.3682 3.71756 16.3682H4.21672C4.25342 16.3682 4.28862 16.3536 4.31457 16.3277C4.34052 16.3017 4.3551 16.2665 4.35512 16.2298V16.2298ZM5.81668 16.2298V14.6975C5.81668 14.6608 5.8021 14.6256 5.77615 14.5997C5.75019 14.5737 5.71499 14.5591 5.67828 14.5591H5.17912C5.14242 14.5591 5.10722 14.5737 5.08126 14.5997C5.05531 14.6256 5.04073 14.6608 5.04073 14.6975V16.2298C5.04073 16.248 5.0443 16.266 5.05126 16.2828C5.05822 16.2996 5.06841 16.3148 5.08126 16.3277C5.09411 16.3405 5.10937 16.3507 5.12616 16.3577C5.14295 16.3646 5.16095 16.3682 5.17912 16.3682H5.67828C5.71498 16.3682 5.75018 16.3536 5.77613 16.3277C5.80208 16.3017 5.81667 16.2665 5.81668 16.2298V16.2298ZM7.27824 16.2298V14.6975C7.27824 14.6608 7.26366 14.6256 7.23771 14.5997C7.21175 14.5737 7.17655 14.5591 7.13985 14.5591H6.64069C6.60398 14.5591 6.56878 14.5737 6.54282 14.5997C6.51687 14.6256 6.50229 14.6608 6.50229 14.6975V16.2298C6.50229 16.248 6.50587 16.266 6.51282 16.2828C6.51978 16.2996 6.52997 16.3148 6.54282 16.3277C6.55567 16.3405 6.57093 16.3507 6.58772 16.3577C6.60451 16.3646 6.62251 16.3682 6.64069 16.3682H7.13985C7.17655 16.3682 7.21174 16.3536 7.23769 16.3277C7.26364 16.3017 7.27823 16.2665 7.27824 16.2298V16.2298ZM8.73981 16.2298V14.6975C8.73981 14.6608 8.72523 14.6256 8.69927 14.5997C8.67332 14.5737 8.63811 14.5591 8.60141 14.5591H8.10225C8.06554 14.5591 8.03034 14.5737 8.00439 14.5997C7.97843 14.6256 7.96385 14.6608 7.96385 14.6975V16.2298C7.96385 16.248 7.96743 16.266 7.97438 16.2828C7.98134 16.2996 7.99153 16.3148 8.00439 16.3277C8.01724 16.3405 8.03249 16.3507 8.04929 16.3577C8.06608 16.3646 8.08407 16.3682 8.10225 16.3682H8.60141C8.63811 16.3682 8.6733 16.3536 8.69925 16.3277C8.72521 16.3017 8.73979 16.2665 8.73981 16.2298V16.2298ZM10.2014 16.2298V14.6975C10.2014 14.6608 10.1868 14.6256 10.1609 14.5997C10.1349 14.5737 10.0997 14.5591 10.063 14.5591H9.56387C9.52716 14.5591 9.49196 14.5737 9.46601 14.5997C9.44005 14.6256 9.42547 14.6608 9.42547 14.6975V16.2298C9.42547 16.248 9.42905 16.266 9.43601 16.2828C9.44296 16.2996 9.45316 16.3148 9.46601 16.3277C9.47886 16.3405 9.49412 16.3507 9.51091 16.3577C9.5277 16.3646 9.5457 16.3682 9.56387 16.3682H10.063C10.0997 16.3682 10.1349 16.3536 10.1609 16.3277C10.1868 16.3017 10.2014 16.2665 10.2014 16.2298V16.2298ZM4.35512 24.1826V22.6503C4.35512 22.6136 4.34054 22.5784 4.31458 22.5524C4.28863 22.5265 4.25343 22.5119 4.21672 22.5119H3.71756C3.68086 22.5119 3.64565 22.5265 3.6197 22.5524C3.59374 22.5784 3.57916 22.6136 3.57916 22.6503V24.1826C3.57916 24.2193 3.59374 24.2545 3.6197 24.2804C3.64565 24.3064 3.68086 24.321 3.71756 24.321H4.21672C4.25342 24.321 4.28862 24.3064 4.31457 24.2804C4.34052 24.2545 4.3551 24.2193 4.35512 24.1826ZM5.81668 24.1826V22.6503C5.81668 22.6136 5.8021 22.5784 5.77615 22.5524C5.75019 22.5265 5.71499 22.5119 5.67828 22.5119H5.17912C5.14242 22.5119 5.10722 22.5265 5.08126 22.5524C5.05531 22.5784 5.04073 22.6136 5.04073 22.6503V24.1826C5.04073 24.2193 5.05531 24.2545 5.08126 24.2804C5.10722 24.3064 5.14242 24.321 5.17912 24.321H5.67828C5.71498 24.321 5.75018 24.3064 5.77613 24.2804C5.80208 24.2545 5.81667 24.2193 5.81668 24.1826V24.1826ZM7.27824 24.1826V22.6503C7.27824 22.6136 7.26366 22.5784 7.23771 22.5524C7.21175 22.5265 7.17655 22.5119 7.13985 22.5119H6.64069C6.60398 22.5119 6.56878 22.5265 6.54282 22.5524C6.51687 22.5784 6.50229 22.6136 6.50229 22.6503V24.1826C6.50229 24.2193 6.51687 24.2545 6.54282 24.2804C6.56878 24.3064 6.60398 24.321 6.64069 24.321H7.13985C7.17655 24.321 7.21174 24.3064 7.23769 24.2804C7.26364 24.2545 7.27823 24.2193 7.27824 24.1826ZM8.73981 24.1826V22.6503C8.73981 22.6136 8.72523 22.5784 8.69927 22.5524C8.67332 22.5265 8.63811 22.5119 8.60141 22.5119H8.10225C8.06554 22.5119 8.03034 22.5265 8.00439 22.5524C7.97843 22.5784 7.96385 22.6136 7.96385 22.6503V24.1826C7.96385 24.2193 7.97843 24.2545 8.00439 24.2804C8.03034 24.3064 8.06554 24.321 8.10225 24.321H8.60141C8.63811 24.321 8.6733 24.3064 8.69925 24.2804C8.72521 24.2545 8.73979 24.2193 8.73981 24.1826ZM10.2014 24.1826V22.6503C10.2014 22.6136 10.1868 22.5784 10.1609 22.5524C10.1349 22.5265 10.0997 22.5119 10.063 22.5119H9.56387C9.52716 22.5119 9.49196 22.5265 9.46601 22.5524C9.44005 22.5784 9.42547 22.6136 9.42547 22.6503V24.1826C9.42547 24.2193 9.44005 24.2545 9.46601 24.2804C9.49196 24.3064 9.52716 24.321 9.56387 24.321H10.063C10.0997 24.321 10.1349 24.3064 10.1609 24.2804C10.1868 24.2545 10.2014 24.2193 10.2014 24.1826ZM24.4106 25.9953V24.348C24.4106 24.2518 24.3724 24.1596 24.3044 24.0915C24.2364 24.0235 24.1441 23.9853 24.0479 23.9853H23.2631C23.1669 23.9853 23.0747 24.0235 23.0066 24.0915C22.9386 24.1596 22.9004 24.2518 22.9004 24.348V25.9953C22.9004 26.0915 22.9386 26.1838 23.0066 26.2518C23.0747 26.3198 23.1669 26.358 23.2631 26.358H24.0479C24.1441 26.358 24.2364 26.3198 24.3044 26.2518C24.3724 26.1838 24.4106 26.0915 24.4106 25.9953V25.9953ZM27.0099 25.9953V24.348C27.0099 24.2518 26.9716 24.1596 26.9036 24.0915C26.8356 24.0235 26.7433 23.9853 26.6471 23.9853H25.8624C25.7662 23.9853 25.6739 24.0235 25.6059 24.0915C25.5378 24.1596 25.4996 24.2518 25.4996 24.348V25.9953C25.4996 26.0915 25.5378 26.1838 25.6059 26.2518C25.6739 26.3198 25.7662 26.358 25.8624 26.358H26.6471C26.7433 26.358 26.8356 26.3198 26.9036 26.2518C26.9716 26.1838 27.0098 26.0915 27.0099 25.9953V25.9953Z" fill="#FFCF53"/>
</svg>
