<svg width="50" height="50" viewBox="0 0 50 50" fill="none" xmlns="http://www.w3.org/2000/svg">
<path d="M29.0446 13.6751C26.7204 13.6751 24.8555 11.6809 25.0232 9.32324C25.1608 7.38799 26.6939 5.80498 28.6239 5.60742C28.8956 5.57959 29.1623 5.5792 29.4219 5.60342C29.7762 5.63643 30.1029 5.4126 30.2189 5.07627C31.0904 2.54863 33.4885 0.732422 36.3122 0.732422C38.4308 0.732422 40.3098 1.75498 41.4846 3.33311C41.7841 3.73545 42.2514 3.97148 42.7529 3.96826C42.7631 3.96816 42.7734 3.96816 42.7836 3.96816C45.4917 3.96816 47.6819 6.18613 47.6364 8.90459C47.592 11.5658 45.3654 13.6752 42.7037 13.6752H29.0446V13.6751Z" fill="#DDEAFB"/>
<path d="M42.7836 3.96807C42.7733 3.96807 42.7632 3.96807 42.7529 3.96816C42.2514 3.97148 41.7841 3.73535 41.4846 3.33301C40.3098 1.75498 38.4308 0.732422 36.3122 0.732422C35.9296 0.732422 35.5553 0.766895 35.191 0.830762C36.8422 1.12158 38.2765 2.04092 39.2384 3.33301C39.5379 3.73535 40.0052 3.97139 40.5067 3.96816C40.5169 3.96807 40.5272 3.96807 40.5374 3.96807C43.2455 3.96807 45.4356 6.18604 45.3902 8.90449C45.3458 11.5657 43.1191 13.6751 40.4575 13.6751H42.7036C45.3652 13.6751 47.5919 11.5657 47.6363 8.90449C47.6818 6.18604 45.4917 3.96807 42.7836 3.96807V3.96807Z" fill="#BED8FB"/>
<path d="M42.7962 16.9108H42.794C42.6747 16.9108 42.5722 16.8307 42.5388 16.7162C41.755 14.0244 39.2696 12.0573 36.3248 12.0573C35.2237 12.0573 34.1874 12.3332 33.28 12.8185C32.9243 13.0088 32.4828 12.9094 32.2567 12.5754C31.3843 11.2867 29.9091 10.4394 28.2357 10.4394C27.8442 10.4394 27.4639 10.486 27.0994 10.5736C26.7046 10.6685 26.2969 10.4564 26.1693 10.0709C24.9973 6.52607 21.6574 3.96815 17.7197 3.96815C12.8055 3.96815 8.82159 7.95194 8.82159 12.8663C8.82159 12.9779 8.82442 13.0888 8.82911 13.1992C8.8337 13.3085 8.79786 13.4157 8.73057 13.5019L8.72364 13.5108C8.63936 13.6188 8.51173 13.6825 8.37491 13.69C4.06925 13.9246 0.659188 17.5238 0.733602 21.9052C0.808895 26.3341 4.49346 29.8535 8.92315 29.8535H42.6997C46.2563 29.8535 49.2208 27.0243 49.267 23.4681C49.3139 19.8547 46.3988 16.9108 42.7962 16.9108V16.9108Z" fill="#ECF4FF"/>
<path d="M42.7962 16.9108H42.794C42.6747 16.9108 42.5722 16.8307 42.5388 16.7162C41.755 14.0244 39.2696 12.0573 36.3248 12.0573C35.2237 12.0573 34.1874 12.3332 33.28 12.8185C32.9243 13.0088 32.4828 12.9094 32.2567 12.5754C31.3843 11.2867 29.9091 10.4394 28.2357 10.4394C27.8442 10.4394 27.4639 10.486 27.0994 10.5736C26.7046 10.6685 26.2969 10.4564 26.1693 10.0709C24.9973 6.52607 21.6574 3.96815 17.7197 3.96815C12.8055 3.96815 8.82159 7.95194 8.82159 12.8663C8.82159 12.9779 8.82442 13.0888 8.82911 13.1992C8.8337 13.3085 8.79786 13.4157 8.73057 13.5019L8.72364 13.5108C8.63936 13.6188 8.51173 13.6825 8.37491 13.69C4.06925 13.9246 0.659188 17.5238 0.733602 21.9052C0.808895 26.3341 4.49346 29.8535 8.92315 29.8535H42.6997C46.2563 29.8535 49.2208 27.0243 49.267 23.4681C49.3139 19.8547 46.3988 16.9108 42.7962 16.9108V16.9108Z" fill="#ECF4FF"/>
<path d="M42.7962 16.9108H42.794C42.6748 16.9108 42.5722 16.8307 42.5388 16.7162C41.755 14.0244 39.2696 12.0573 36.3248 12.0573C35.9419 12.0573 35.5671 12.0914 35.2025 12.1554C37.6416 12.5825 39.6109 14.3749 40.2927 16.7162C40.326 16.8307 40.4286 16.9108 40.5479 16.9108H40.5501C44.1527 16.9108 47.0678 19.8547 47.0209 23.4681C46.9748 27.0244 44.0103 29.8535 40.4536 29.8535H42.6997C46.2563 29.8535 49.2208 27.0244 49.267 23.4681C49.3139 19.8547 46.3988 16.9108 42.7962 16.9108V16.9108Z" fill="#DDEAFB"/>
<path d="M36.3266 36.3258C36.3266 34.5388 37.7752 33.0902 39.5622 33.0902H41.989C42.4358 33.0902 42.7979 33.4524 42.7979 33.899V36.3258C42.7979 38.1128 41.3492 39.5615 39.5622 39.5615H36.3266V36.3258Z" fill="#B3E59F"/>
<path d="M41.9891 33.0892H39.743C40.1898 33.0892 40.552 33.4514 40.552 33.898V36.3248C40.552 38.1118 39.1033 39.5604 37.3163 39.5604H39.5624C41.3494 39.5604 42.7981 38.1118 42.7981 36.3248V33.898C42.798 33.4514 42.4358 33.0892 41.9891 33.0892Z" fill="#95D6A4"/>
<path d="M8.82168 30.5859H10.3939C10.7984 30.5859 11.1264 30.258 11.1264 29.8535C11.1264 29.449 10.7984 29.1211 10.3939 29.1211H8.82168C4.76504 29.1211 1.46484 25.8209 1.46484 21.7643C1.46484 17.7102 4.76113 14.4116 8.81436 14.4075C8.829 14.408 8.84355 14.4085 8.85869 14.4085H8.85889C12.8982 14.4288 16.1784 17.7203 16.1784 21.7643C16.1784 22.1688 16.5063 22.4968 16.9108 22.4968C17.3153 22.4968 17.6433 22.1688 17.6433 21.7643C17.6433 17.1475 14.0782 13.3483 9.55654 12.9736C9.55605 12.938 9.5541 12.9016 9.5541 12.8663C9.5541 11.2095 10.0473 9.61463 10.9804 8.25399C11.2092 7.9204 11.1242 7.46454 10.7906 7.23573C10.4571 7.00682 10.0012 7.09188 9.77236 7.42547C8.67129 9.03104 8.08926 10.9124 8.08926 12.8662C8.08926 12.9016 8.08945 12.9371 8.08984 12.9727C3.5666 13.346 0 17.1465 0 21.7643C0 26.6286 3.95732 30.5859 8.82168 30.5859V30.5859Z" fill="black"/>
<path d="M43.1393 16.1864C42.9192 15.5437 42.6128 14.9468 42.2358 14.4064L42.7962 14.4076C45.8763 14.4076 48.3821 11.9018 48.3821 8.82168C48.3821 5.7415 45.8763 3.23574 42.7962 3.23574C42.6438 3.23574 42.49 3.24229 42.3356 3.25527C41.0155 1.23535 38.7561 0 36.3249 0C33.2043 0 30.4992 1.97324 29.5248 4.87646C29.3696 4.86123 29.2135 4.85361 29.0572 4.85361C27.5211 4.85361 26.0922 5.60732 25.2076 6.81328C24.7728 6.275 24.2799 5.78174 23.7358 5.3459C22.0371 3.98516 19.9006 3.23574 17.7197 3.23574C15.6211 3.23574 13.6264 3.89902 11.9512 5.15391C11.6274 5.39639 11.5616 5.85547 11.8041 6.1792C12.0466 6.50293 12.5057 6.56875 12.8294 6.32627C14.2492 5.2627 15.9402 4.70059 17.7197 4.70059C21.3268 4.70059 24.4505 7.02305 25.5098 10.4154C23.7757 11.384 22.6497 13.2323 22.6497 15.2931C22.6497 15.6976 22.9776 16.0255 23.3821 16.0255C23.7866 16.0255 24.1145 15.6976 24.1145 15.2931C24.1145 13.6093 25.1331 12.118 26.6515 11.4876C26.6539 11.4866 26.6563 11.486 26.6588 11.4851C27.1597 11.2773 27.6902 11.172 28.2356 11.172C29.8212 11.172 31.2842 12.0991 31.9629 13.5338C32.0551 13.7288 32.2285 13.8731 32.4369 13.9285C32.6453 13.9838 32.8675 13.9445 33.0443 13.8211C34.0104 13.1464 35.1448 12.7897 36.3249 12.7897C38.9475 12.7897 41.2335 14.5613 41.8841 17.0979C41.9691 17.4301 42.2729 17.658 42.6162 17.648C42.6162 17.648 42.7528 17.6433 42.7962 17.6433C45.9606 17.6433 48.5351 20.2178 48.5351 23.3822C48.5351 26.5467 45.9606 29.1212 42.7962 29.1212C39.6317 29.1212 37.0572 26.5467 37.0572 23.3822C37.0572 22.9777 36.7293 22.6498 36.3248 22.6498C35.9203 22.6498 35.5924 22.9777 35.5924 23.3822C35.5924 25.7223 36.7145 27.8045 38.4482 29.1212H13.3236C12.9191 29.1212 12.5912 29.4491 12.5912 29.8536C12.5912 30.2581 12.9191 30.586 13.3236 30.586H42.7962C46.7684 30.586 50 27.3544 50 23.3822C50 19.5249 46.9529 16.366 43.1393 16.1864V16.1864ZM32.8855 12.1988C31.8595 10.6635 30.1108 9.70703 28.2356 9.70703C27.7728 9.70703 27.3177 9.76309 26.8752 9.87422C26.6778 9.27207 26.4193 8.6918 26.1082 8.14092C26.6625 7.03926 27.8077 6.31836 29.0572 6.31836C29.3316 6.31836 29.6048 6.35234 29.8693 6.41924C30.0599 6.46748 30.2619 6.43701 30.4299 6.33477C30.5978 6.23252 30.7176 6.06699 30.7622 5.87549C31.368 3.27861 33.6555 1.46484 36.3249 1.46484C38.0731 1.46484 39.7098 2.26777 40.7847 3.60869C38.6624 4.42275 37.2102 6.46963 37.2102 8.82158C37.2102 9.22607 37.5382 9.554 37.9427 9.554C38.3472 9.554 38.6751 9.22607 38.6751 8.82158C38.6751 6.81396 40.1077 5.10674 42.0816 4.76211C42.3211 4.72031 42.562 4.70049 42.7962 4.70049C45.0685 4.70049 46.9173 6.54922 46.9173 8.82158C46.9173 11.0939 45.0685 12.9427 42.7976 12.9427L40.8706 12.9388C39.619 11.922 38.0289 11.3249 36.3249 11.3249C35.112 11.3249 33.9374 11.6251 32.8855 12.1988V12.1988Z" fill="black"/>
<path d="M25.7324 36.3249C25.7324 34.1369 23.9523 32.3568 21.7643 32.3568C19.5764 32.3568 17.7963 34.1369 17.7963 36.3249C17.7963 36.7294 18.1242 37.0573 18.5287 37.0573C18.9332 37.0573 19.2611 36.7294 19.2611 36.3249C19.2611 34.9446 20.3841 33.8217 21.7643 33.8217C23.1446 33.8217 24.2676 34.9446 24.2676 36.3249C24.2676 37.7052 23.1446 38.8281 21.7643 38.8281H0.732605C0.328113 38.8281 0.000183105 39.1561 0.000183105 39.5606C0.000183105 39.965 0.328113 40.293 0.732605 40.293H21.7643C23.9523 40.293 25.7324 38.5129 25.7324 36.3249Z" fill="black"/>
<path d="M23.3821 25.8854H13.6751C13.2706 25.8854 12.9427 26.2134 12.9427 26.6179C12.9427 27.0224 13.2706 27.3503 13.6751 27.3503H23.3821C25.5702 27.3503 27.3503 25.5702 27.3503 23.3821C27.3503 21.1941 25.5702 19.4141 23.3821 19.4141C21.1941 19.4141 19.4141 21.1941 19.4141 23.3821C19.4141 23.7866 19.742 24.1146 20.1465 24.1146C20.551 24.1146 20.8789 23.7866 20.8789 23.3821C20.8789 22.0019 22.0019 20.8789 23.3821 20.8789C24.7624 20.8789 25.8854 22.0019 25.8854 23.3821C25.8854 24.7625 24.7624 25.8854 23.3821 25.8854Z" fill="black"/>
<path d="M28.2356 42.0638H7.2039C6.79941 42.0638 6.47148 42.3917 6.47148 42.7962C6.47148 43.2007 6.79941 43.5286 7.2039 43.5286H28.2356C29.6159 43.5286 30.7389 44.6516 30.7389 46.0318C30.7389 47.4121 29.616 48.5352 28.2356 48.5352C26.8553 48.5352 25.7324 47.4122 25.7324 46.0319C25.7324 45.6274 25.4045 45.2995 25 45.2995C24.5955 45.2995 24.2676 45.6274 24.2676 46.0319C24.2676 48.2199 26.0477 50 28.2356 50C30.4236 50 32.2037 48.2199 32.2037 46.0319C32.2037 43.8439 30.4237 42.0638 28.2356 42.0638Z" fill="black"/>
<path d="M41.9873 32.3567H39.5605C37.3726 32.3567 35.5925 34.1368 35.5925 36.3248V39.2571L34.1892 40.6604C33.9031 40.9465 33.9031 41.4102 34.1892 41.6962C34.3321 41.8393 34.5196 41.9107 34.707 41.9107C34.8944 41.9107 35.0819 41.8393 35.2249 41.6962L36.6282 40.2929H39.5605C41.7485 40.2929 43.5286 38.5128 43.5286 36.3248V33.898C43.5286 33.0482 42.8372 32.3567 41.9873 32.3567V32.3567ZM42.0638 36.3249C42.0638 37.7052 40.9408 38.8281 39.5605 38.8281H38.0931L40.0784 36.8428C40.3645 36.5567 40.3645 36.093 40.0784 35.807C39.7925 35.521 39.3287 35.521 39.0427 35.807L37.0573 37.7924V36.3249C37.0573 34.9446 38.1803 33.8217 39.5605 33.8217H41.9873C42.0295 33.8217 42.0638 33.8561 42.0638 33.8981V36.3249Z" fill="black"/>
</svg>
